<svg width="20" height="25" viewBox="0 0 20 25" fill="none" xmlns="http://www.w3.org/2000/svg">
<path d="M19.3613 8.37489C19.2188 8.48544 16.7031 9.90296 16.7031 13.0549C16.7031 16.7007 19.9042 17.9904 20 18.0224C19.9853 18.101 19.4915 19.7887 18.3122 21.5084C17.2608 23.0217 16.1626 24.5326 14.4921 24.5326C12.8215 24.5326 12.3916 23.5622 10.4631 23.5622C8.58371 23.5622 7.91549 24.5646 6.38742 24.5646C4.85935 24.5646 3.79315 23.1642 2.56725 21.4445C1.14728 19.4251 0 16.2879 0 13.3104C0 8.53458 3.10527 6.00172 6.16141 6.00172C7.78528 6.00172 9.13893 7.06793 10.1585 7.06793C11.1289 7.06793 12.6422 5.93785 14.4896 5.93785C15.1898 5.93785 17.7054 6.00172 19.3613 8.37489ZM13.6126 3.91598C14.3766 3.00946 14.9171 1.75163 14.9171 0.493797C14.9171 0.319371 14.9023 0.142489 14.8704 0C13.6273 0.0466773 12.1484 0.827908 11.2566 1.86218C10.5564 2.65815 9.90296 3.91598 9.90296 5.19101C9.90296 5.38263 9.9349 5.57425 9.94964 5.63567C10.0283 5.65041 10.156 5.66761 10.2837 5.66761C11.3991 5.66761 12.8019 4.92077 13.6126 3.91598Z" fill="black"/>
</svg>
