<svg width="6" height="10" viewBox="0 0 6 10" fill="none" xmlns="http://www.w3.org/2000/svg">
<path d="M0.561325 8.09318C0.295416 8.30731 0.293501 8.65604 0.557048 8.87209C0.820594 9.08815 1.2498 9.0897 1.51571 8.87557L3.13787 7.56927C3.74885 7.07728 4.2482 6.67518 4.60233 6.3169C4.97059 5.94433 5.23716 5.56617 5.30837 5.11224C5.33959 4.91321 5.33959 4.71179 5.30837 4.51276C5.23716 4.05883 4.97059 3.68067 4.60233 3.3081C4.2482 2.94982 3.74886 2.54772 3.13789 2.05574L1.51571 0.74943C1.2498 0.535299 0.820596 0.536855 0.557049 0.752905C0.293502 0.968956 0.295417 1.31769 0.561326 1.53182L2.15478 2.815C2.80147 3.33577 3.24508 3.69418 3.54525 3.99786C3.83683 4.29286 3.93686 4.48234 3.96348 4.65204C3.9802 4.75859 3.9802 4.86641 3.96348 4.97296C3.93686 5.14266 3.83683 5.33214 3.54525 5.62714C3.24508 5.93082 2.80147 6.28923 2.15478 6.81L0.561325 8.09318Z" fill="#C6BABA"/>
</svg>
