<svg width="21" height="18" viewBox="0 0 21 18" fill="none" xmlns="http://www.w3.org/2000/svg">
<path d="M12.712 5.64952C12.9694 5.43083 12.9712 5.07468 12.7161 4.85403C12.461 4.63338 12.0455 4.63179 11.788 4.85048L10.2176 6.18457C9.62617 6.68703 9.14275 7.09769 8.79992 7.46359C8.44342 7.84409 8.18536 8.23029 8.11642 8.69388C8.08619 8.89715 8.08619 9.10285 8.11642 9.30612C8.18536 9.76971 8.44342 10.1559 8.79992 10.5364C9.14275 10.9023 9.62616 11.313 10.2176 11.8154L11.788 13.1495C12.0455 13.3682 12.461 13.3666 12.7161 13.146C12.9712 12.9253 12.9694 12.5692 12.712 12.3505L11.1694 11.04C10.5433 10.5081 10.1139 10.1421 9.82327 9.83197C9.541 9.5307 9.44416 9.33719 9.41839 9.16388C9.4022 9.05506 9.4022 8.94494 9.41839 8.83612C9.44416 8.66281 9.541 8.4693 9.82327 8.16803C10.1139 7.85788 10.5433 7.49185 11.1694 6.96L12.712 5.64952Z" fill="black"/>
</svg>
