<svg width="10" height="10" viewBox="0 0 10 10" fill="none" xmlns="http://www.w3.org/2000/svg">
<path d="M5.15408 0.89585L8.90408 2.39584C9.04992 2.45417 9.16659 2.62917 9.16659 2.78334V4.16667C9.16659 4.39584 8.97909 4.58334 8.74992 4.58334H1.24992C1.02075 4.58334 0.833252 4.39584 0.833252 4.16667V2.78334C0.833252 2.62917 0.949921 2.45417 1.09575 2.39584L4.84575 0.89585C4.92909 0.862516 5.07075 0.862516 5.15408 0.89585Z" stroke="#AAAAAA" stroke-width="0.625" stroke-miterlimit="10" stroke-linecap="round" stroke-linejoin="round"/>
<path d="M9.16659 9.16667H0.833252V7.91667C0.833252 7.6875 1.02075 7.5 1.24992 7.5H8.74992C8.97909 7.5 9.16659 7.6875 9.16659 7.91667V9.16667Z" stroke="#AAAAAA" stroke-width="0.625" stroke-miterlimit="10" stroke-linecap="round" stroke-linejoin="round"/>
<path d="M1.66675 7.50004V4.58337" stroke="#AAAAAA" stroke-width="0.625" stroke-miterlimit="10" stroke-linecap="round" stroke-linejoin="round"/>
<path d="M3.33325 7.50004V4.58337" stroke="#AAAAAA" stroke-width="0.625" stroke-miterlimit="10" stroke-linecap="round" stroke-linejoin="round"/>
<path d="M5 7.50004V4.58337" stroke="#AAAAAA" stroke-width="0.625" stroke-miterlimit="10" stroke-linecap="round" stroke-linejoin="round"/>
<path d="M6.66675 7.50004V4.58337" stroke="#AAAAAA" stroke-width="0.625" stroke-miterlimit="10" stroke-linecap="round" stroke-linejoin="round"/>
<path d="M8.33325 7.50004V4.58337" stroke="#AAAAAA" stroke-width="0.625" stroke-miterlimit="10" stroke-linecap="round" stroke-linejoin="round"/>
<path d="M0.416748 9.16663H9.58342" stroke="#AAAAAA" stroke-width="0.625" stroke-miterlimit="10" stroke-linecap="round" stroke-linejoin="round"/>
<path d="M5 3.54163C5.34518 3.54163 5.625 3.2618 5.625 2.91663C5.625 2.57145 5.34518 2.29163 5 2.29163C4.65482 2.29163 4.375 2.57145 4.375 2.91663C4.375 3.2618 4.65482 3.54163 5 3.54163Z" stroke="#AAAAAA" stroke-width="0.625" stroke-miterlimit="10" stroke-linecap="round" stroke-linejoin="round"/>
</svg>
