<svg width="20" height="24" viewBox="0 0 20 24" fill="none" xmlns="http://www.w3.org/2000/svg">
<path d="M1 1.85126H1.26835C1.74213 1.85126 1.97943 1.85126 2.17267 1.94988C2.34304 2.03683 2.48871 2.17682 2.59375 2.35433C2.71269 2.55534 2.75564 2.82375 2.84137 3.35952L5.00004 16.8501L15.4218 16.85C15.875 16.85 16.1023 16.85 16.29 16.7576C16.4559 16.676 16.5989 16.5438 16.7051 16.3757C16.8252 16.1857 16.8761 15.9313 16.9777 15.4229L16.9785 15.4193L18.5477 7.57381L18.5481 7.57217C18.7023 6.80102 18.7796 6.41452 18.6947 6.11134C18.6202 5.84533 18.4635 5.6198 18.2556 5.47625C18.0184 5.31251 17.6758 5.31251 16.9887 5.31251H3.5M16 22.6188C15.4477 22.6188 15 22.1022 15 21.465C15 20.8278 15.4477 20.3113 16 20.3113C16.5523 20.3113 17 20.8278 17 21.465C17 22.1022 16.5523 22.6188 16 22.6188ZM6 22.6188C5.44772 22.6188 5 22.1022 5 21.465C5 20.8278 5.44772 20.3113 6 20.3113C6.55228 20.3113 7 20.8278 7 21.465C7 22.1022 6.55228 22.6188 6 22.6188Z" stroke="black" stroke-width="2" stroke-linecap="round" stroke-linejoin="round"/>
</svg>
