<svg width="10" height="10" viewBox="0 0 10 10" fill="none" xmlns="http://www.w3.org/2000/svg">
<path d="M8.24585 6.2208C7.38752 7.07497 6.15835 7.33747 5.07919 6.99997L3.11669 8.9583C2.97502 9.10413 2.69585 9.19163 2.49585 9.16247L1.58752 9.03747C1.28752 8.9958 1.00835 8.71247 0.96252 8.41247L0.83752 7.50413C0.808354 7.30413 0.904187 7.02497 1.04169 6.8833L3.00002 4.92497C2.66669 3.84163 2.92502 2.61247 3.78335 1.7583C5.01252 0.529134 7.00835 0.529134 8.24169 1.7583C9.47502 2.98747 9.47502 4.99163 8.24585 6.2208Z" stroke="#AAAAAA" stroke-width="0.625" stroke-miterlimit="10" stroke-linecap="round" stroke-linejoin="round"/>
<path d="M2.87085 7.28748L3.82918 8.24581" stroke="#AAAAAA" stroke-width="0.625" stroke-miterlimit="10" stroke-linecap="round" stroke-linejoin="round"/>
<path d="M6.04175 4.58337C6.38693 4.58337 6.66675 4.30355 6.66675 3.95837C6.66675 3.6132 6.38693 3.33337 6.04175 3.33337C5.69657 3.33337 5.41675 3.6132 5.41675 3.95837C5.41675 4.30355 5.69657 4.58337 6.04175 4.58337Z" stroke="#AAAAAA" stroke-width="0.625" stroke-linecap="round" stroke-linejoin="round"/>
</svg>
