<svg width="10" height="10" viewBox="0 0 10 10" fill="none" xmlns="http://www.w3.org/2000/svg">
<path fill-rule="evenodd" clip-rule="evenodd" d="M6.15874 8.20849C7.12114 6.98125 8.33341 5.19826 8.33341 4.00358C8.33341 2.02256 6.84103 0.416626 5.00008 0.416626C3.15913 0.416626 1.66675 2.02256 1.66675 4.00358C1.66675 5.19826 2.87902 6.98125 3.84142 8.20849C4.34352 8.84877 4.59457 9.16891 5.00008 9.16891C5.4056 9.16891 5.65665 8.84877 6.15874 8.20849ZM5.00008 5.41663C4.30973 5.41663 3.75008 4.85698 3.75008 4.16663C3.75008 3.47627 4.30973 2.91663 5.00008 2.91663C5.69044 2.91663 6.25008 3.47627 6.25008 4.16663C6.25008 4.85698 5.69044 5.41663 5.00008 5.41663Z" fill="black"/>
</svg>
