<svg width="7" height="9" viewBox="0 0 7 9" fill="none" xmlns="http://www.w3.org/2000/svg">
<path d="M4.74911 1.92155C4.74911 2.70665 4.11266 3.3431 3.32756 3.3431C2.54246 3.3431 1.90601 2.70665 1.90601 1.92155C1.90601 1.13645 2.54246 0.5 3.32756 0.5C4.11266 0.5 4.74911 1.13645 4.74911 1.92155Z" stroke="#AAAAAA"/>
<path d="M0.509259 7.53555H6.14624C5.98717 6.41606 5.08153 5.54637 3.94711 5.4389L0.509259 7.53555ZM0.509259 7.53555C0.657683 6.42301 1.56978 5.54681 2.70199 5.43888C3.1115 5.40026 3.53743 5.40026 3.94695 5.43888L0.509259 7.53555ZM0.397196 7.60632L0.388588 7.61493L0.397196 7.60632Z" stroke="#AAAAAA"/>
</svg>
