<svg width="14" height="17" viewBox="0 0 14 17" fill="none" xmlns="http://www.w3.org/2000/svg">
<path d="M6.99939 8.4814C9.11719 8.4814 10.834 6.76459 10.834 4.6468C10.834 2.529 9.11719 0.812195 6.99939 0.812195C4.8816 0.812195 3.16479 2.529 3.16479 4.6468C3.16479 6.76459 4.8816 8.4814 6.99939 8.4814Z" fill="#171717"/>
<path d="M8.3296 10.6725C7.4498 10.5895 6.5368 10.5895 5.657 10.6725C2.8682 10.9381 0.627205 13.1459 0.361604 15.9347C0.345004 16.1671 0.411405 16.3995 0.577405 16.5655C0.743405 16.7315 0.959204 16.8477 1.1916 16.8477H12.8116C13.044 16.8477 13.2764 16.7481 13.4258 16.5821C13.5752 16.4161 13.6582 16.1837 13.6416 15.9513C13.3594 13.1459 11.135 10.9381 8.3296 10.6725Z" fill="#171717"/>
</svg>
