<svg width="10" height="10" viewBox="0 0 10 10" fill="none" xmlns="http://www.w3.org/2000/svg">
<path d="M7.34159 4.47921C7.16242 4.47921 7.02075 4.33337 7.02075 4.15837C7.02075 4.00421 6.86659 3.68337 6.60825 3.40421C6.35409 3.13337 6.07492 2.97504 5.84159 2.97504C5.66242 2.97504 5.52075 2.82921 5.52075 2.65421C5.52075 2.47921 5.66659 2.33337 5.84159 2.33337C6.25825 2.33337 6.69575 2.55837 7.07908 2.96254C7.43742 3.34171 7.66658 3.81254 7.66658 4.15421C7.66658 4.33337 7.52075 4.47921 7.34159 4.47921Z" fill="#AAAAAA"/>
<path d="M8.84574 4.47921C8.66657 4.47921 8.5249 4.33337 8.5249 4.15837C8.5249 2.67921 7.32074 1.47921 5.84574 1.47921C5.66657 1.47921 5.5249 1.33337 5.5249 1.15837C5.5249 0.983374 5.66657 0.833374 5.84157 0.833374C7.6749 0.833374 9.16657 2.32504 9.16657 4.15837C9.16657 4.33337 9.02074 4.47921 8.84574 4.47921Z" fill="#AAAAAA"/>
<path d="M4.60409 6.22921L3.83325 7.00004C3.67075 7.16254 3.41242 7.16254 3.24575 7.00421C3.19992 6.95837 3.15409 6.91671 3.10825 6.87087C2.67909 6.43754 2.29159 5.98337 1.94575 5.50837C1.60409 5.03337 1.32909 4.55837 1.12909 4.08754C0.933252 3.61254 0.833252 3.15837 0.833252 2.72504C0.833252 2.44171 0.883252 2.17087 0.983252 1.92087C1.08325 1.66671 1.24159 1.43337 1.46242 1.22504C1.72909 0.962541 2.02075 0.833374 2.32909 0.833374C2.44575 0.833374 2.56242 0.858374 2.66659 0.908374C2.77492 0.958374 2.87075 1.03337 2.94575 1.14171L3.91242 2.50421C3.98742 2.60837 4.04159 2.70421 4.07909 2.79587C4.11659 2.88337 4.13742 2.97087 4.13742 3.05004C4.13742 3.15004 4.10825 3.25004 4.04992 3.34587C3.99575 3.44171 3.91659 3.54171 3.81659 3.64171L3.49992 3.97087C3.45409 4.01671 3.43325 4.07087 3.43325 4.13754C3.43325 4.17087 3.43742 4.20004 3.44575 4.23337C3.45825 4.26671 3.47075 4.29171 3.47909 4.31671C3.55409 4.45421 3.68325 4.63337 3.86659 4.85004C4.05409 5.06671 4.25409 5.28754 4.47075 5.50837C4.51242 5.55004 4.55825 5.59171 4.59992 5.63337C4.76659 5.79587 4.77075 6.06254 4.60409 6.22921Z" fill="#AAAAAA"/>
<path d="M9.15417 7.63748C9.15417 7.75414 9.13333 7.87498 9.09167 7.99164C9.07917 8.02498 9.06667 8.05831 9.05 8.09164C8.97917 8.24164 8.8875 8.38331 8.76667 8.51664C8.5625 8.74164 8.3375 8.90414 8.08333 9.00831C8.07917 9.00831 8.075 9.01248 8.07083 9.01248C7.825 9.11248 7.55833 9.16664 7.27083 9.16664C6.84583 9.16664 6.39167 9.06664 5.9125 8.86248C5.43333 8.65831 4.95417 8.38331 4.47917 8.03748C4.31667 7.91664 4.15417 7.79581 4 7.66664L5.3625 6.30414C5.47917 6.39164 5.58333 6.45831 5.67083 6.50414C5.69167 6.51248 5.71667 6.52498 5.74583 6.53748C5.77917 6.54998 5.8125 6.55414 5.85 6.55414C5.92083 6.55414 5.975 6.52914 6.02083 6.48331L6.3375 6.17081C6.44167 6.06664 6.54167 5.98748 6.6375 5.93748C6.73333 5.87914 6.82917 5.84998 6.93333 5.84998C7.0125 5.84998 7.09583 5.86664 7.1875 5.90414C7.27917 5.94164 7.375 5.99581 7.47917 6.06664L8.85833 7.04581C8.96667 7.12081 9.04167 7.20831 9.0875 7.31248C9.12917 7.41664 9.15417 7.52081 9.15417 7.63748Z" fill="#AAAAAA"/>
</svg>
