<svg width="9" height="10" viewBox="0 0 9 10" fill="none" xmlns="http://www.w3.org/2000/svg">
<path d="M9 4.52133C8.99138 4.21047 8.89703 3.9078 8.72701 3.64747C8.55747 3.38763 8.31897 3.17975 8.03831 3.0479C8.14511 2.75581 8.16762 2.43967 8.10536 2.13507C8.04262 1.82999 7.89607 1.54897 7.68295 1.32329C7.45785 1.10916 7.17864 0.962394 6.875 0.898876C6.57184 0.83632 6.25718 0.858936 5.96648 0.966243C5.83573 0.683781 5.62931 0.443664 5.37021 0.27332C5.11111 0.102976 4.80987 0.00769915 4.5 0C4.19061 0.00818035 3.89033 0.102495 3.63171 0.27332C3.37308 0.444145 3.16762 0.684262 3.03784 0.966243C2.74665 0.858936 2.43103 0.835358 2.12692 0.898876C1.8228 0.961431 1.54262 1.10868 1.31753 1.32329C1.10441 1.54945 0.958812 1.83095 0.897031 2.13555C0.83477 2.44015 0.858717 2.7563 0.965996 3.0479C0.684866 3.17975 0.445402 3.38714 0.274904 3.64699C0.104406 3.90684 0.00909962 4.20999 0 4.52133C0.00957854 4.83266 0.104406 5.13533 0.274904 5.39566C0.445402 5.65551 0.684866 5.86338 0.965996 5.99475C0.858717 6.28636 0.83477 6.6025 0.897031 6.9071C0.959291 7.21218 1.10441 7.4932 1.31705 7.71936C1.54215 7.93253 1.82184 8.07881 2.125 8.14185C2.42816 8.20537 2.74282 8.18227 3.03352 8.07641C3.16475 8.35839 3.37117 8.59803 3.63027 8.76885C3.88889 8.93919 4.19061 9.03399 4.5 9.04265C4.80987 9.03495 5.11111 8.94016 5.37021 8.76981C5.62931 8.59947 5.83573 8.35887 5.96648 8.07689C6.25575 8.1919 6.5728 8.21932 6.87787 8.15581C7.18247 8.09229 7.46216 7.94071 7.68247 7.71936C7.90278 7.49801 8.05412 7.21699 8.11734 6.91047C8.18056 6.60395 8.15326 6.28539 8.03831 5.99475C8.31897 5.8629 8.55747 5.65551 8.72749 5.39518C8.89703 5.13533 8.99138 4.83218 9 4.52133ZM3.8592 6.37393L2.21695 4.72439L2.83621 4.09787L3.82854 5.09491L5.93582 2.78805L6.58094 3.38763L3.8592 6.37393Z" fill="#1D9BF0"/>
</svg>
